Coordinates
version=1
nRows=20
nColumns=23
inDegrees=yes

Units are S.I. units (second, meters, Newtons, ...)
If the header above contains a line with 'inDegrees', this indicates whether rotational values are in degrees (yes) or radians (no).

endheader
time	pelvis_tilt	pelvis_list	pelvis_rotation	pelvis_tx	pelvis_ty	pelvis_tz	hip_flexion_r	hip_adduction_r	hip_rotation_r	knee_angle_r	knee_angle_r_beta	ankle_angle_r	subtalar_angle_r	mtp_angle_r	hip_flexion_l	hip_adduction_l	hip_rotation_l	knee_angle_l	knee_angle_l_beta	ankle_angle_l	subtalar_angle_l	mtp_angle_l
     22.50000000	     -4.68715341	     -4.78038142	     -3.13698505	      2.09937676	      0.95175043	      0.98904524	     29.03704970	      4.04190487	    -21.14856723	     35.81482700	      0.62508665	      8.66109886	     -5.92363826	      0.00000000	      0.15944845	     -8.97813932	    -10.44454996	     88.19205728	      1.53924177	    -16.14741892	    -28.86667645	      0.00000000
     22.50666667	     -5.01907195	     -5.24385579	     -3.22735557	      2.09655983	      0.94681837	      0.98954552	     29.03554219	      4.60814236	    -20.61936649	     37.73141554	      0.65853743	     10.61320624	     -6.84686394	      0.00000000	      3.05423447	     -9.68166649	     -9.53031818	     92.31088880	      1.61112894	    -15.17975362	    -28.97140504	      0.00000000
     22.51333333	     -5.11049409	     -5.57694606	     -3.39267899	      2.09353672	      0.94258114	      0.99005849	     28.76822395	      5.05161804	    -19.91010685	     39.64025790	      0.69185302	     12.71360847	     -7.71804201	      0.00000000	      5.75029963	    -10.08229040	     -8.52448696	     96.05888180	      1.67654376	    -14.36012164	    -29.06693042	      0.00000000
     22.52000000	     -5.17369871	     -6.06915154	     -3.49751287	      2.09044977	      0.93883874	      0.99034960	     28.33616800	      5.60892150	    -19.30724349	     41.30126298	      0.72084302	     14.63183663	     -8.29205742	      0.00000000	      8.50677040	    -10.55922949	     -7.28652543	     99.51405525	      1.73684792	    -13.55413566	    -29.06210245	      0.00000000
     22.52666667	     -5.47709654	     -6.32829849	     -3.66794372	      2.08714707	      0.93512349	      0.99064536	     28.14175036	      5.93868940	    -18.56345225	     42.92249950	      0.74913894	     16.42100617	     -8.73803690	      0.00000000	     11.63090092	    -10.67116955	     -5.96844843	    102.66533540	      1.79184813	    -12.83248355	    -28.99003908	      0.00000000
     22.53333333	     -5.75789847	     -6.62502003	     -3.76943445	      2.08390803	      0.93197104	      0.99075658	     27.74917535	      6.28389944	    -17.89346969	     44.24916047	      0.77229354	     18.10025703	     -8.97255378	      0.00000000	     14.80147308	    -10.71343053	     -4.48836372	    105.43313223	      1.84015530	    -12.16353013	    -28.82776500	      0.00000000
     22.54000000	     -5.76620619	     -7.06226293	     -3.77710426	      2.08099456	      0.92983098	      0.99083060	     26.81140910	      6.73420542	    -17.39999911	     45.15793981	      0.78815473	     19.59654933	     -9.08170113	      0.00000000	     17.66526360	    -10.84800575	     -2.87969798	    107.73904358	      1.88040104	    -11.52212166	    -28.47957974	      0.00000000
     22.54666667	     -6.19291887	     -7.30820637	     -3.67097284	      2.07812405	      0.92747586	      0.99076467	     26.22911017	      6.91817116	    -17.08422544	     45.93042538	      0.80163715	     20.97621554	     -9.03441070	      0.00000000	     21.09385618	    -10.69431873	     -1.14762872	    109.71456986	      1.91488048	    -10.79566726	    -27.82822343	      0.00000000
     22.55333333	     -6.57806965	     -7.35569703	     -3.51540360	      2.07556809	      0.92580742	      0.99071257	     25.42701955	      6.90341143	    -16.77563926	     46.41765331	      0.81014088	     22.20133797	     -8.83588924	      0.00000000	     24.44161183	    -10.22197446	      0.51654130	    111.17847279	      1.94043041	    -10.00848436	    -26.75687321	      0.00000000
     22.56000000	     -6.96577246	     -7.28456735	     -3.25073661	      2.07330436	      0.92468594	      0.99066631	     24.45703300	      6.71261850	    -16.67088767	     46.63327716	      0.81390423	     23.24205407	     -8.41770323	      0.00000000	     27.75244700	     -9.56435402	      2.12214809	    112.16749033	      1.95769202	     -9.10120810	    -25.21081573	      0.00000000
     22.56666667	     -7.14395521	     -7.15508566	     -2.86683032	      2.07150320	      0.92440070	      0.99062061	     23.07501863	      6.44255113	    -16.69644723	     46.54249027	      0.81231970	     24.12087653	     -7.99352419	      0.00000000	     30.71613541	     -8.80430760	      3.59704043	    112.63790461	      1.96590230	     -8.18334562	    -23.54108361	      0.00000000
     22.57333333	     -7.21784432	     -6.91584778	     -2.38524351	      2.07007457	      0.92483425	      0.99053298	     21.41343763	      6.03666751	    -16.86376821	     46.15793779	      0.80560799	     24.74258133	     -7.45483832	      0.00000000	     33.43564174	     -7.88610620	      4.89191934	    112.60827625	      1.96538519	     -7.29125658	    -21.85100822	      0.00000000
     22.58000000	     -7.20001115	     -6.56323905	     -1.83947845	      2.06906288	      0.92601021	      0.99045347	     19.48402484	      5.49258148	    -17.19864168	     45.48796232	      0.79391471	     25.17408653	     -6.56218410	      0.00000000	     35.86882757	     -6.84575968	      5.94785102	    112.07615924	      1.95609799	     -6.41073846	    -20.26532248	      0.00000000
     22.58666667	     -7.09442114	     -6.02459813	     -1.24454855	      2.06840809	      0.92791090	      0.99035769	     17.33328330	      4.77875500	    -17.57275858	     44.56937286	      0.77788230	     25.30956056	     -5.73274360	      0.00000000	     37.99346096	     -5.61094240	      6.70657488	    111.03992923	      1.93801237	     -5.67703192	    -19.09904266	      0.00000000
     22.59333333	     -6.88475632	     -5.37991742	     -0.59697685	      2.06822146	      0.93050263	      0.99020971	     14.92950457	      3.94764322	    -18.10568666	     43.40826886	      0.75761721	     25.22857773	     -4.53893992	      0.00000000	     39.76710342	     -4.28750153	      7.20946039	    109.53921533	      1.91181997	     -5.03197511	    -18.28283299	      0.00000000
     22.60000000	     -6.97655215	     -4.52311025	     -0.13833851	      2.06811392	      0.93327362	      0.99034648	     12.83174301	      3.04755206	    -18.30205804	     42.08106969	      0.73445322	     24.47748944	     -3.91176907	      0.00000000	     41.63777630	     -2.92589663	      7.26095410	    107.60773433	      1.87810926	     -4.55691191	    -17.85813639	      0.00000000
     22.60666667	     -6.64308152	     -3.71579706	      0.55641187	      2.06876374	      0.93710369	      0.99010343	     10.06023638	      2.10257542	    -19.05721915	     40.43131758	      0.70565961	     23.80776736	     -2.33083452	      0.00000000	     42.77361225	     -1.53947624	      7.30794240	    105.24862779	      1.83693509	     -4.08482185	    -17.95440068	      0.00000000
     22.61333333	     -6.86961899	     -2.75203391	      0.98593697	      2.06945474	      0.94054532	      0.99020326	      7.95858245	      1.15695292	    -19.33606817	     38.74008041	      0.67614196	     22.30132885	     -1.52935765	      0.00000000	     44.31725544	     -0.24960791	      6.91395032	    102.55928198	      1.78999715	     -3.62972120	    -18.13509049	      0.00000000
     22.62000000	     -6.74363729	     -1.85752775	      1.53376302	      2.07081802	      0.94494301	      0.99009305	      5.30934674	      0.30045220	    -19.90385261	     36.70790992	      0.64067389	     20.59788358	     -0.36494839	      0.00000000	     45.17797557	      1.01928383	      6.55565945	     99.46669704	      1.73602136	     -3.37668735	    -18.94808460	      0.00000000
     22.62666667	     -6.86282417	     -1.03718428	      1.93164787	      2.07245217	      0.94924815	      0.99022348	      2.92930693	     -0.38837483	    -20.30576798	     34.53185326	      0.60269454	     18.32571592	      0.76943399	      0.00000000	     46.10594241	      2.00711892	      6.00912848	     96.10086272	      1.67727647	     -3.11067395	    -19.84180171	      0.00000000
